<svg height='100px' width='100px'  fill="#42ffba" xmlns="http://www.w3.org/2000/svg" data-name="Layer 5" viewBox="0 0 32 32" x="0px" y="0px"><title>Folder</title><path d="M27,7H17a2.00012,2.00012,0,0,1-1.6-.8L13.59994,3.8A1.99992,1.99992,0,0,0,12,3H5A2,2,0,0,0,3,5V27a2,2,0,0,0,2,2H27a2,2,0,0,0,2-2V9A2,2,0,0,0,27,7ZM13.12454,23.5h1a1,1,0,0,1,0,2h-1a3.00328,3.00328,0,0,1-3-3V20h-1a1,1,0,0,1,0-2h1V15.5a3.00328,3.00328,0,0,1,3-3h1a1,1,0,0,1,0,2h-1a1.001,1.001,0,0,0-1,1v7A1.00067,1.00067,0,0,0,13.12454,23.5Zm9.75-3.5h-1v2.5a3.00328,3.00328,0,0,1-3,3h-1a1,1,0,1,1,0-2h1a1.00067,1.00067,0,0,0,1-1v-7a1.001,1.001,0,0,0-1-1h-1a1,1,0,0,1,0-2h1a3.00328,3.00328,0,0,1,3,3V18h1a1,1,0,0,1,0,2Z"></path></svg>