<svg height='100px' width='100px'  fill="#42ffba" xmlns:x="http://ns.adobe.com/Extensibility/1.0/" xmlns:i="http://ns.adobe.com/AdobeIllustrator/10.0/" xmlns:graph="http://ns.adobe.com/Graphs/1.0/" xmlns="http://www.w3.org/2000/svg" xmlns:xlink="http://www.w3.org/1999/xlink" version="1.1" x="0px" y="0px" viewBox="0 0 100 100" style="enable-background:new 0 0 100 100;" xml:space="preserve"><g><g i:extraneous="self"><g><path d="M5273.1,2400.1v-2c0-2.8-5-4-9.7-4s-9.7,1.3-9.7,4v2c0,1.8,0.7,3.6,2,4.9l5,4.9c0.3,0.3,0.4,0.6,0.4,1v6.4     c0,0.4,0.2,0.7,0.6,0.8l2.9,0.9c0.5,0.1,1-0.2,1-0.8v-7.2c0-0.4,0.2-0.7,0.4-1l5.1-5C5272.4,2403.7,5273.1,2401.9,5273.1,2400.1z      M5263.4,2400c-4.8,0-7.4-1.3-7.5-1.8v0c0.1-0.5,2.7-1.8,7.5-1.8c4.8,0,7.3,1.3,7.5,1.8C5270.7,2398.7,5268.2,2400,5263.4,2400z"></path><path d="M5268.4,2410.3c-0.6,0-1,0.4-1,1c0,0.6,0.4,1,1,1h4.3c0.6,0,1-0.4,1-1c0-0.6-0.4-1-1-1H5268.4z"></path><path d="M5272.7,2413.7h-4.3c-0.6,0-1,0.4-1,1c0,0.6,0.4,1,1,1h4.3c0.6,0,1-0.4,1-1C5273.7,2414.1,5273.3,2413.7,5272.7,2413.7z"></path><path d="M5272.7,2417h-4.3c-0.6,0-1,0.4-1,1c0,0.6,0.4,1,1,1h4.3c0.6,0,1-0.4,1-1C5273.7,2417.5,5273.3,2417,5272.7,2417z"></path></g><g><path d="M93.7,33.9c-3.9-2.3-8.9-0.9-10.9,3.1L67.7,66.8c1.8,0.3,3.6,0.9,5.2,1.8c1.6,1,3,2.2,4,3.7L96.1,45     C98.7,41.3,97.6,36.2,93.7,33.9z"></path><path d="M70.2,72.9c-4.2-2.5-9.7-1.2-12.2,3c-2.7,4.5,0.6,10.2-4.3,16.2c-0.9,1.1-0.1,2.7,1.3,2.6c9.8-0.4,15.6-5.3,18.3-9.7     C75.8,80.9,74.5,75.5,70.2,72.9z"></path><path d="M60.7,65.8l0.3-0.6L67.7,52V18.1c0-1.8-1.5-3.3-3.3-3.3h-6.7v-4.4c0-2.9-2.3-5.2-5.2-5.2c-2.9,0-5.2,2.3-5.2,5.2v4.4h-7     v-4.4c0-2.9-2.3-5.2-5.2-5.2s-5.2,2.3-5.2,5.2v4.4h-7v-4.4c0-2.9-2.3-5.2-5.2-5.2s-5.2,2.3-5.2,5.2v4.4H5.8     c-1.9,0-3.3,1.5-3.3,3.3v51.6C2.5,71.5,4,73,5.8,73H52c0.1-0.2,0.2-0.3,0.2-0.5C54.2,69.3,57.3,67,60.7,65.8z M41.6,26.1     c2.6,0,4.8,2.2,4.8,4.8c0,2.7-2.2,4.8-4.8,4.8s-4.8-2.1-4.8-4.8C36.9,28.3,39,26.1,41.6,26.1z M51.9,59.4H18.4     c-0.8,0-1.6-0.5-2-1.2c-0.4-0.7-0.3-1.6,0.1-2.3L28,39.2c0.8-1.2,2.8-1.2,3.7,0l6.5,9.5l3.5-5.1c0.8-1.2,2.8-1.2,3.7,0L53.7,56     c0.5,0.7,0.5,1.5,0.1,2.3C53.5,59,52.7,59.4,51.9,59.4z"></path></g></g></g></svg>