<svg height='100px' width='100px'  fill="#42ffba" xmlns:x="http://ns.adobe.com/Extensibility/1.0/" xmlns:i="http://ns.adobe.com/AdobeIllustrator/10.0/" xmlns:graph="http://ns.adobe.com/Graphs/1.0/" xmlns="http://www.w3.org/2000/svg" xmlns:xlink="http://www.w3.org/1999/xlink" version="1.1" x="0px" y="0px" viewBox="0 0 100 100" style="enable-background:new 0 0 100 100;" xml:space="preserve"><g><g i:extraneous="self"><g><path d="M34.4,71.4c0.5,0.5,1.3,0.6,1.9,0.1l2.4-2.3c0.5-0.5,0.6-1.3,0.1-1.9l-8.6-9.2l8.6-9.1c0.5-0.5,0.5-1.4-0.1-1.9l-2.4-2.3     c-0.5-0.5-1.4-0.5-1.9,0.1L22.8,57.3c-0.5,0.5-0.5,1.3,0,1.8L34.4,71.4z"></path><path d="M61.3,69.2l2.4,2.3c0.5,0.5,1.4,0.5,1.9-0.1l11.6-12.3c0.5-0.5,0.5-1.3,0-1.8L65.6,44.9c-0.5-0.5-1.3-0.6-1.9-0.1     l-2.4,2.3c-0.5,0.5-0.6,1.3-0.1,1.9l8.6,9.1l-8.6,9.2C60.7,67.9,60.8,68.7,61.3,69.2z"></path><path d="M44.5,73l3.2,0.8c0.7,0.2,1.4-0.2,1.6-1L56.5,45c0.2-0.7-0.2-1.4-1-1.6l-3.2-0.8c-0.7-0.2-1.4,0.2-1.6,1l-7.1,27.8     C43.4,72.1,43.8,72.8,44.5,73z"></path><path d="M87.9,11.4H12.1c-5.3,0-9.6,4.3-9.6,9.6V79c0,5.3,4.3,9.6,9.6,9.6h75.8c5.3,0,9.6-4.3,9.6-9.6V21     C97.5,15.7,93.2,11.4,87.9,11.4z M66.9,20.1h14.9c1.4,0,2.5,1.1,2.5,2.5S83.2,25,81.8,25H66.9c-1.4,0-2.5-1.1-2.5-2.5     S65.5,20.1,66.9,20.1z M36.8,19.1c1.9,0,3.4,1.5,3.4,3.4c0,1.9-1.5,3.4-3.4,3.4c-1.9,0-3.4-1.5-3.4-3.4     C33.4,20.7,34.9,19.1,36.8,19.1z M26.7,19.1c1.9,0,3.4,1.5,3.4,3.4c0,1.9-1.5,3.4-3.4,3.4c-1.9,0-3.4-1.5-3.4-3.4     C23.3,20.7,24.9,19.1,26.7,19.1z M16.7,19.1c1.9,0,3.4,1.5,3.4,3.4c0,1.9-1.5,3.4-3.4,3.4c-1.9,0-3.4-1.5-3.4-3.4     C13.3,20.7,14.8,19.1,16.7,19.1z M91.5,79c0,2-1.6,3.6-3.6,3.6H12.1c-2,0-3.6-1.6-3.6-3.6V33.8h83.1V79z"></path></g></g></g></svg>