<svg height='100px' width='100px'  fill="#23153c" xmlns="http://www.w3.org/2000/svg" xmlns:xlink="http://www.w3.org/1999/xlink" version="1.1" x="0px" y="0px" viewBox="0 0 60 60" style="enable-background:new 0 0 60 60;" xml:space="preserve"><path d="M30,26.322937c8.3085938,0,15.5087891,6.1904297,16.7470703,14.3994141  c0.0751953,0.4951172,0.5019531,0.8505859,0.9882813,0.8505859c0.0498047,0,0.0996094-0.003418,0.1503906-0.0112305  c0.5458984-0.0825195,0.921875-0.5917969,0.8398438-1.1381836C47.3398438,31.244812,39.2900391,24.322937,30,24.322937  c-0.5527344,0-1,0.4477539-1,1S29.4472656,26.322937,30,26.322937z"></path><path d="M42.6835938,19.6989136c0.1767578,0.3461914,0.5273438,0.5449219,0.8916016,0.5449219  c0.1533203,0,0.3085938-0.0351563,0.4541016-0.109375l7.0625-3.6083984  c0.4921875-0.2514648,0.6865234-0.8540039,0.4355469-1.3457031s-0.8544922-0.6855469-1.3457031-0.4355469l-7.0625,3.6083984  C42.6269531,18.6046753,42.4326172,19.2072144,42.6835938,19.6989136z"></path><path d="M39.5869141,15.0890503c0.0996094,0.0317383,0.2001953,0.046875,0.2998047,0.046875  c0.4248047,0,0.8193359-0.2734375,0.9541016-0.7001953l2.125-6.75c0.1660156-0.5268555-0.1269531-1.0883789-0.6542969-1.2539063  c-0.5234375-0.1665039-1.0878906,0.1264648-1.2539063,0.6533203l-2.125,6.75  C38.7666016,14.3619995,39.0595703,14.9235229,39.5869141,15.0890503z"></path><path d="M43.3369141,15.3014526c0.1826172,0.140625,0.3974609,0.2089844,0.6113281,0.2089844  c0.2988281,0,0.5947266-0.1333008,0.7919922-0.3881836l5.125-6.625c0.3378906-0.4370117,0.2578125-1.0649414-0.1787109-1.402832  c-0.4375-0.3359375-1.0644531-0.2578125-1.4033203,0.1791992l-5.125,6.625  C42.8203125,14.3356323,42.9003906,14.963562,43.3369141,15.3014526z"></path><path d="M8.9082031,16.526062l7.0625,3.6083984c0.1455078,0.0742188,0.3007813,0.109375,0.4541016,0.109375  c0.3642578,0,0.7148438-0.1987305,0.8916016-0.5449219c0.2509766-0.4916992,0.0566406-1.0942383-0.4355469-1.3457031  l-7.0625-3.6083984c-0.4902344-0.25-1.09375-0.0561523-1.3457031,0.4355469  C8.2216797,15.6720581,8.4160156,16.2745972,8.9082031,16.526062z"></path><path d="M19.1591797,14.43573c0.1347656,0.4267578,0.5283203,0.7001953,0.9541016,0.7001953  c0.0996094,0,0.2001953-0.0151367,0.2998047-0.046875c0.5273438-0.1655273,0.8203125-0.7270508,0.6542969-1.2539063l-2.125-6.75  c-0.1660156-0.5263672-0.7265625-0.8203125-1.2539063-0.6533203c-0.5273438,0.1655273-0.8203125,0.7270508-0.6542969,1.2539063  L19.1591797,14.43573z"></path><path d="M15.2597656,15.1222534c0.1972656,0.2548828,0.4931641,0.3881836,0.7919922,0.3881836  c0.2138672,0,0.4287109-0.0683594,0.6113281-0.2089844c0.4365234-0.3378906,0.5166016-0.9658203,0.1787109-1.402832l-5.125-6.625  c-0.3378906-0.4370117-0.9658203-0.515625-1.4033203-0.1791992C9.8769531,7.432312,9.796875,8.0602417,10.1347656,8.4972534  L15.2597656,15.1222534z"></path><path d="M52,47.6149292h-1.6757813V45.572937H51.9375c0.5527344,0,1-0.4477539,1-1v-1.3125  c0-11.6265259-8.6972046-21.2532959-19.9257813-22.7334595V18.072937H33.375c1.6611328,0,3.0117188-1.3510742,3.0117188-3.0112305  c0-1.6606445-1.3505859-3.0117188-3.0117188-3.0117188h-6.75c-1.6611328,0-3.0117188,1.3510742-3.0117188,3.0117188  c0,1.6601563,1.3505859,3.0112305,3.0117188,3.0112305h0.3632813v2.4540405  C15.7597046,22.0071411,7.0625,31.6339111,7.0625,43.260437v1.3125c0,0.5522461,0.4472656,1,1,1h1.6132813v2.0419922H8  c-1.6542969,0-3,1.3457031-3,3s1.3457031,3,3,3h44c1.6542969,0,3-1.3457031,3-3S53.6542969,47.6149292,52,47.6149292z   M26.625,16.072937c-0.5576172,0-1.0117188-0.4536133-1.0117188-1.0112305s0.4541016-1.0117188,1.0117188-1.0117188h6.75  c0.5576172,0,1.0117188,0.4541016,1.0117188,1.0117188S33.9326172,16.072937,33.375,16.072937h-1.3632813h-4.0234375H26.625z   M31.0117188,18.072937v2.2756958C30.6759644,20.3339844,30.3392944,20.322937,30,20.322937  s-0.6759644,0.0110474-1.0117188,0.0256958V18.072937H31.0117188z M9.0625,43.572937v-0.3125  c0-11.5449219,9.3925781-20.9375,20.9375-20.9375s20.9375,9.3925781,20.9375,20.9375v0.3125h-1.6132813H10.6757813H9.0625z   M48.3242188,45.572937v2.0419922H11.6757813V45.572937H48.3242188z M52,51.6149292H8c-0.5517578,0-1-0.4487305-1-1s0.4482422-1,1-1  h2.6757813h38.6484375H52c0.5517578,0,1,0.4487305,1,1S52.5517578,51.6149292,52,51.6149292z"></path></svg>