<svg height='100px' width='100px'  fill="#23153c" xmlns="http://www.w3.org/2000/svg" xmlns:xlink="http://www.w3.org/1999/xlink" version="1.1" x="0px" y="0px" viewBox="0 0 100 100" style="enable-background:new 0 0 100 100;" xml:space="preserve"><path d="M61.0131836,53.7954102h2.5890503c2.7533569,4.258667,7.8618164,6.4632568,8.1292114,6.5761719  c0.1245117,0.0522461,0.2563477,0.0786133,0.3886719,0.0786133s0.2641602-0.0263672,0.3886719-0.0786133  c0.267395-0.112915,5.3752441-2.3175049,8.1288452-6.5761719h2.8247681c0.5522461,0,1-0.4477539,1-1s-0.4477539-1-1-1h-1.7987061  c0.1895752-0.4821167,0.357666-0.9769897,0.4730225-1.4995117c0.9033203-4.0932617-1.3295898-7-3.7871094-7.9682617  c-2.2514648-0.8881836-4.578125-0.253418-6.2294922,1.6103516c-1.6518555-1.8637695-3.9804688-2.4985352-6.2304688-1.6103516  c-2.4570312,0.96875-4.6899414,3.8754883-3.7861328,7.9682617c0.1152954,0.522522,0.2832642,1.017395,0.4727783,1.4995117  h-1.5631104c-0.5522461,0-1,0.4477539-1,1S60.4609375,53.7954102,61.0131836,53.7954102z M72.1191406,58.3491211  c-1.0461426-0.5047607-3.9754028-2.0621948-6.0427856-4.5537109h3.7131958c0.3457031,0,0.6665039-0.1782227,0.8491211-0.4716797  l1.5170898-2.4384766l1.5166016,2.4384766c0.1826172,0.293457,0.503418,0.4716797,0.8491211,0.4716797h3.6375732  C76.0914307,56.2819214,73.1640625,57.8431396,72.1191406,58.3491211z M64.0566406,49.8647461  c-0.6508789-2.9482422,0.8740234-5.0092773,2.5664062-5.6762695c0.387207-0.152832,0.8198242-0.2431641,1.2719727-0.2431641  c1.1420898,0,2.40625,0.5786133,3.3642578,2.1992188c0.359375,0.609375,1.3623047,0.6083984,1.7216797,0  c1.3359375-2.262207,3.2709961-2.4946289,4.6352539-1.9560547c1.6928711,0.6669922,3.2182617,2.7280273,2.5673828,5.6762695  c-0.1507568,0.6826172-0.3989868,1.3235474-0.7053833,1.9306641h-4.401062l-2.0722656-3.3320312  c-0.1826172-0.293457-0.503418-0.4716797-0.8491211-0.4716797s-0.6665039,0.1782227-0.8491211,0.4716797l-2.0727539,3.3320312  h-4.4737549C64.4547729,51.1885376,64.2073364,50.5476074,64.0566406,49.8647461z"></path><path d="M36.5629883,72.5878906c-2.3955078,0-4.3442383,1.9438477-4.3442383,4.3330078s1.9487305,4.3330078,4.3442383,4.3330078  s4.3442383-1.9438477,4.3442383-4.3330078S38.9584961,72.5878906,36.5629883,72.5878906z M36.5629883,79.2539062  c-1.2924805,0-2.3442383-1.0463867-2.3442383-2.3330078s1.0517578-2.3330078,2.3442383-2.3330078  s2.3442383,1.0463867,2.3442383,2.3330078S37.8554688,79.2539062,36.5629883,79.2539062z"></path><path d="M90,30.105957c0-2.4726562-2.0117188-4.484375-4.484375-4.484375H63.1254883V15.1132812  c0-2.8217773-2.3017578-5.1176758-5.1313477-5.1176758H15.1318359C12.3022461,9.9956055,10,12.2915039,10,15.1132812v65.4790039  c0,2.8217773,2.3022461,5.1176758,5.1318359,5.1176758h39.2564087c0.1065674,2.3787842,2.0596924,4.2856445,4.4642944,4.2856445  H85.515625c2.4726562,0,4.484375-2.0117188,4.484375-4.484375V30.105957z M88,30.105957v43.7021484H56.3681641V30.105957  c0-1.3701172,1.1142578-2.484375,2.484375-2.484375H85.515625C86.8857422,27.621582,88,28.7358398,88,30.105957z   M40.4385986,68.1069336c-0.4321899-1.3965454-1.3534546-4.913269-1.1256104-8.9311523  c0.3862305-6.824707,3.7924805-11.722168,10.1235352-14.5576172c1.7584229-0.7874146,3.4085693-1.5999146,4.9316406-2.4233398  v25.9121094H40.4385986z M61.1254883,15.1132812V25.621582h-2.2729492c-2.4726562,0-4.484375,2.0117188-4.484375,4.484375v9.8016968  c-1.7321167,0.9796143-3.6599121,1.949585-5.7490234,2.8853149c-14.1858521,6.3528442-11.4911499,20.824707-10.2572632,25.3139648  h-5.8276978l-0.0898438-1.0766602c-0.046875-0.550293-0.527832-0.965332-1.0810547-0.9121094  c-0.550293,0.046875-0.9584961,0.5307617-0.9121094,1.0810547l0.0759888,0.9077148H12v-6.0252075  c0.6862183,0.1033936,1.371521,0.1712036,2.0483398,0.1712036c2.5263672-0.0004883,4.9379883-0.7109375,6.8720703-2.0634766  c2.5444336-1.7797852,4.1816406-4.5922852,4.7348633-8.1337891c0.7060547-4.519043,4.2177734-8.3740234,9.1635742-10.0605469  l0.6132812-0.206543c5.3422852-1.8554688,8.652832-6.125,8.6401367-11.1425781  c-0.0131836-5.0356445-3.3603516-9.3046875-8.7163086-11.1337891c-0.0668945-0.0253906-0.3149414-0.128418-0.574707-0.2363281  c-0.362793-0.1503906-0.7470703-0.3071289-0.8037109-0.3256836c-7.0916138-2.3153687-8.026062-5.7636108-8.1313477-6.9545898  h32.1479492C59.7207031,11.9956055,61.1254883,13.394043,61.1254883,15.1132812z M15.1318359,11.9956055h8.7113647  c0.1043701,1.6847534,1.1985474,6.1411743,9.4893188,8.8476562c0.0810547,0.0302734,0.3896484,0.1586914,0.6826172,0.2802734  c0.3193359,0.1323242,0.6235352,0.2568359,0.6748047,0.2744141c4.5429688,1.5517578,7.371582,5.097168,7.3823242,9.253418  c0.0107422,4.1376953-2.7851562,7.6811523-7.2949219,9.2470703l-0.6035156,0.2036133  c-2.3803101,0.8115845-4.4661865,2.0769653-6.1507568,3.6576538c-0.0698242-0.1621094-0.1311035-0.3311768-0.2032471-0.4916382  c-0.2265625-0.5048828-0.8203125-0.7285156-1.3217773-0.5024414c-0.5039062,0.2265625-0.7290039,0.8183594-0.5024414,1.3217773  c0.1887817,0.4202881,0.359436,0.854248,0.5315552,1.2872925c-1.4868164,1.8671875-2.4833374,4.0408936-2.8474731,6.3723755  c-0.4741211,3.0332031-1.7880859,5.3222656-3.9057617,6.8032227C17.6673584,60.0241699,14.8474731,60.5646973,12,60.0631104  V15.1132812C12,13.394043,13.4047852,11.9956055,15.1318359,11.9956055z M12,80.5922852V70.1069336h27.713562  c0.0010986,0,0.0021362,0.0004883,0.0032349,0.0004883c0.0009155,0,0.00177-0.0004883,0.0026855-0.0004883h14.6486816v13.6030273  H15.1318359C13.4047852,83.7099609,12,82.3115234,12,80.5922852z M85.515625,87.9956055H58.8525391  c-1.3701172,0-2.484375-1.1142578-2.484375-2.484375v-9.703125H88v9.703125  C88,86.8813477,86.8857422,87.9956055,85.515625,87.9956055z"></path><path d="M72.184082,77.6079102c-2.3691406,0-4.296875,1.9223633-4.296875,4.2856445s1.9277344,4.2856445,4.296875,4.2856445  s4.296875-1.9223633,4.296875-4.2856445S74.5532227,77.6079102,72.184082,77.6079102z M72.184082,84.1791992  c-1.2666016,0-2.296875-1.0253906-2.296875-2.2856445s1.0302734-2.2856445,2.296875-2.2856445  s2.296875,1.0253906,2.296875,2.2856445S73.4506836,84.1791992,72.184082,84.1791992z"></path><path d="M30.7631836,60.1513672c-0.5488281,0.0605469-0.9448242,0.5541992-0.8847656,1.1035156  c0.0708008,0.6411133,0.1391602,1.2998047,0.206543,1.9775391c0.0512695,0.5161133,0.4863281,0.9008789,0.9941406,0.9008789  c0.0327148,0,0.0664062-0.0014648,0.1000977-0.0048828c0.5498047-0.0546875,0.9506836-0.5449219,0.8959961-1.0942383  c-0.0683594-0.6845703-0.1376953-1.3500977-0.2084961-1.9980469C31.8061523,60.4873047,31.3076172,60.0908203,30.7631836,60.1513672  z"></path><path d="M18.1118164,18.5566406c0.0322266,0,0.0654297-0.0014648,0.0986328-0.0048828  c0.5493164-0.0537109,0.9516602-0.5429688,0.8974609-1.0927734c-0.0625-0.6381836-0.1225586-1.2973633-0.1801758-1.9780273  c-0.046875-0.550293-0.5356445-0.9609375-1.0810547-0.9121094c-0.550293,0.046875-0.9584961,0.5307617-0.9121094,1.0810547  c0.0585938,0.6894531,0.1196289,1.3574219,0.1831055,2.0043945C17.1679688,18.1708984,17.6030273,18.5566406,18.1118164,18.5566406z  "></path><path d="M24.2001953,40.6518555c0.1875,0.3129883,0.519043,0.4863281,0.8588867,0.4863281  c0.1748047,0,0.3520508-0.0458984,0.5126953-0.1420898c0.4741211-0.2836914,0.6279297-0.8979492,0.3442383-1.371582  c-0.3452148-0.5766602-0.7099609-1.1513672-1.0961914-1.7294922c-0.3071289-0.4599609-0.9272461-0.5830078-1.387207-0.2758789  c-0.4589844,0.3071289-0.5825195,0.9282227-0.2758789,1.387207C23.5244141,39.5561523,23.871582,40.1035156,24.2001953,40.6518555z"></path><path d="M17.5708008,21.6577148c0.090332,0.6967773,0.184082,1.362793,0.2802734,2.0004883  c0.074707,0.4951172,0.5009766,0.8505859,0.9873047,0.8505859c0.0498047,0,0.1000977-0.003418,0.1508789-0.0112305  c0.5458984-0.0825195,0.921875-0.5917969,0.8393555-1.1381836c-0.0942383-0.6240234-0.1860352-1.2763672-0.2744141-1.9584961  c-0.0712891-0.5483398-0.5805664-0.9414062-1.1201172-0.8632812C17.8862305,20.6083984,17.5,21.1103516,17.5708008,21.6577148z"></path><path d="M29.5673828,52.25c0.5395508-0.1196289,0.8798828-0.6533203,0.7607422-1.1923828  c-0.1508789-0.6826172-0.3105469-1.3422852-0.4794922-1.9819336c-0.1411133-0.5341797-0.6884766-0.8530273-1.222168-0.7114258  c-0.5336914,0.1411133-0.8525391,0.6879883-0.7114258,1.222168c0.1621094,0.6142578,0.3149414,1.2475586,0.4599609,1.902832  c0.1035156,0.4667969,0.5166016,0.7841797,0.9755859,0.7841797C29.421875,52.2734375,29.4946289,52.2661133,29.5673828,52.25z"></path><path d="M30.5224609,58.1679688c0.546875-0.0761719,0.9291992-0.5810547,0.8535156-1.1279297  c-0.0952148-0.6875-0.1943359-1.3530273-0.2978516-1.9980469c-0.0878906-0.5454102-0.6010742-0.9194336-1.1459961-0.8286133  c-0.5454102,0.0874023-0.9160156,0.6005859-0.8286133,1.1459961c0.1015625,0.6313477,0.1977539,1.2822266,0.2910156,1.9550781  c0.0693359,0.5004883,0.4980469,0.862793,0.9892578,0.862793C30.4296875,58.1772461,30.4760742,58.1743164,30.5224609,58.1679688z"></path><path d="M20.1694336,33.5683594c0.2543945,0.6928711,0.5253906,1.3422852,0.8056641,1.9296875  c0.1713867,0.3588867,0.5297852,0.5688477,0.902832,0.5688477c0.1445312,0,0.2915039-0.03125,0.4306641-0.0976562  c0.4980469-0.237793,0.7089844-0.8349609,0.4711914-1.3334961c-0.253418-0.5307617-0.5-1.121582-0.7324219-1.7558594  c-0.1904297-0.5180664-0.7651367-0.7856445-1.2832031-0.5947266C20.2456055,32.4750977,19.9794922,33.0498047,20.1694336,33.5683594  z"></path><path d="M19.3310547,26.465332c-0.5410156,0.1108398-0.8896484,0.6396484-0.7783203,1.1806641  c0.1455078,0.7094727,0.2939453,1.3701172,0.4438477,1.9863281c0.1113281,0.4570312,0.5205078,0.7631836,0.9707031,0.7631836  c0.0786133,0,0.1582031-0.0092773,0.237793-0.0283203c0.5366211-0.1308594,0.8657227-0.671875,0.7348633-1.2084961  c-0.1450195-0.59375-0.2875977-1.230957-0.4282227-1.9150391C20.4008789,26.703125,19.875,26.3515625,19.3310547,26.465332z"></path></svg>