<svg height='100px' width='100px'  fill="#42ffba" xmlns="http://www.w3.org/2000/svg" viewBox="0 0 64 64" x="0px" y="0px"><title>bear, grizzly, animal, mammals, zoo</title><g data-name="22"><path d="M54.26,21.37c-.12-.3-.25-.6-.39-.91A8,8,0,1,0,43,12.21,14.35,14.35,0,0,0,40.66,12H23.34a14.35,14.35,0,0,0-2.38.21,8,8,0,1,0-10.84,8.26c-.14.31-.27.61-.39.91L7.2,28.06a14.65,14.65,0,0,0,.62,11.8l8,13.12a12.56,12.56,0,0,0,10.7,6h11a12.56,12.56,0,0,0,10.69-6l8-13.12,0-.07a14.62,14.62,0,0,0,.58-11.72ZM51,7a6,6,0,0,1,1.91,11.69c-.07-.11-.16-.22-.23-.33l-.31-.44c-.17-.23-.35-.46-.54-.68l-.34-.39c-.21-.23-.43-.45-.65-.66l-.32-.31c-.33-.3-.66-.59-1-.85l0,0c-.36-.28-.74-.53-1.12-.77L48,14c-.26-.15-.53-.3-.8-.44l-.48-.22c-.26-.12-.52-.23-.78-.33l-.52-.19L45,12.67A6,6,0,0,1,51,7ZM7,13a6,6,0,0,1,12-.33l-.38.14L18.1,13c-.27.1-.53.22-.8.34l-.46.22c-.29.14-.56.3-.84.46l-.36.21a14.69,14.69,0,0,0-2.19,1.67l-.26.26c-.24.24-.48.48-.71.73l-.3.35c-.2.24-.39.48-.58.73l-.29.41c-.08.11-.16.22-.24.34A6,6,0,0,1,7,13ZM54.45,38.86,46.5,51.94a10.55,10.55,0,0,1-9,5.06h-11a10.55,10.55,0,0,1-9-5.06l-7.93-13a12.61,12.61,0,0,1-.5-10.12l2.54-6.69a14.52,14.52,0,0,1,.81-1.74,12.37,12.37,0,0,1,.68-1.07,12.63,12.63,0,0,1,7.13-4.88,12.44,12.44,0,0,1,3.11-.4H40.66a12.41,12.41,0,0,1,4.46.83,12.62,12.62,0,0,1,6.46,5.51,14.37,14.37,0,0,1,.82,1.75l2.54,6.69A12.61,12.61,0,0,1,54.45,38.86Z"></path><path d="M33.49,35h-3A5.52,5.52,0,0,0,25,40.51v9A5.52,5.52,0,0,0,30.51,55h3A5.52,5.52,0,0,0,39,49.49v-9A5.52,5.52,0,0,0,33.49,35ZM37,49.49A3.51,3.51,0,0,1,33.49,53h-3A3.51,3.51,0,0,1,27,49.49v-9A3.51,3.51,0,0,1,30.51,37h3A3.51,3.51,0,0,1,37,40.51Z"></path><path d="M33.5,39h-3a2.45,2.45,0,0,0-2.39,1.4,1.74,1.74,0,0,0,.53,1.94l1.5,1.33a2.5,2.5,0,0,0,.86.49V49H30a1,1,0,0,0,0,2h4a1,1,0,0,0,0-2H33V44.17a2.5,2.5,0,0,0,.86-.49l1.5-1.33a1.74,1.74,0,0,0,.53-1.94A2.45,2.45,0,0,0,33.5,39Zm-1,3.19a1,1,0,0,1-1.07,0L30.18,41a1.18,1.18,0,0,1,.32,0h3a1.14,1.14,0,0,1,.32,0Z"></path><circle cx="25.5" cy="31.5" r="1.5"></circle><circle cx="38.5" cy="31.5" r="1.5"></circle></g></svg>