<svg height='100px' width='100px'  fill="#23153c" xmlns="http://www.w3.org/2000/svg" xmlns:xlink="http://www.w3.org/1999/xlink" version="1.1" x="0px" y="0px" viewBox="0 0 100 100" style="enable-background:new 0 0 100 100;" xml:space="preserve"><style type="text/css">
	.st0{fill:none;stroke:#23153c;stroke-width:2;stroke-linecap:round;stroke-linejoin:round;stroke-miterlimit:10;}
	.st1{fill:none;stroke:#23153c;stroke-width:2;stroke-linecap:round;stroke-linejoin:round;}
	.st2{fill:none;stroke:#23153c;stroke-width:2;stroke-linecap:round;stroke-linejoin:round;stroke-dasharray:2.9177,3.8902;}
	.st3{fill:none;stroke:#23153c;stroke-width:2;stroke-linecap:round;stroke-linejoin:round;stroke-dasharray:2.9655,3.954;}
	.st4{fill:none;stroke:#23153c;stroke-width:2;stroke-linecap:round;stroke-linejoin:round;stroke-dasharray:2.7633,3.6844;}
	.st5{fill:none;stroke:#23153c;stroke-width:1.8;stroke-linecap:round;stroke-linejoin:round;stroke-miterlimit:10;}
</style><path d="M87.2,88.3c0-0.6-0.4-1-1-1H73.8V43.3l11.9,11.6c0.2,0.2,0.4,0.3,0.7,0.3c0.3,0,0.5-0.1,0.7-0.3c0.4-0.4,0.4-1,0-1.4  l-13.3-13v-6.8l12,11.7c0.2,0.2,0.4,0.3,0.7,0.3c0.3,0,0.5-0.1,0.7-0.3c0.4-0.4,0.4-1,0-1.4l-13.4-13v-6.8l12,11.7  c0.2,0.2,0.4,0.3,0.7,0.3c0.3,0,0.5-0.1,0.7-0.3c0.4-0.4,0.4-1,0-1.4L73.8,21.4v-6.8l12.1,11.7c0.2,0.2,0.4,0.3,0.7,0.3  c0.3,0,0.5-0.1,0.7-0.3c0.4-0.4,0.4-1,0-1.4L73.6,11.7c-0.4-0.4-1-0.4-1.4,0L58.4,24.8c-0.4,0.4-0.4,1,0,1.4c0.4,0.4,1,0.4,1.4,0  l12-11.4v6.7L58.3,34.3c-0.4,0.4-0.4,1,0,1.4c0.4,0.4,1,0.4,1.4,0l12.1-11.5v6.7L58.3,43.8c-0.4,0.4-0.4,1,0,1.4  c0.4,0.4,1,0.4,1.4,0l12.1-11.5v6.7L58.2,53.3c-0.4,0.4-0.4,1,0,1.4c0.4,0.4,1,0.4,1.4,0l12.2-11.6v44.2h-21v-5.9h13  c0.6,0,1-0.4,1-1V58.2c0-0.6-0.4-1-1-1h-13v-2.1c0-0.6-0.4-1-1-1s-1,0.4-1,1v2.1h-13c-0.6,0-1,0.4-1,1v22.2c0,0.6,0.4,1,1,1h13v5.9  H27.1V43.2L39,54.8c0.2,0.2,0.4,0.3,0.7,0.3c0.3,0,0.5-0.1,0.7-0.3c0.4-0.4,0.4-1,0-1.4l-13.3-13v-6.8l12,11.7  c0.2,0.2,0.4,0.3,0.7,0.3c0.3,0,0.5-0.1,0.7-0.3c0.4-0.4,0.4-1,0-1.4l-13.4-13v-6.8l12,11.7c0.2,0.2,0.4,0.3,0.7,0.3  c0.3,0,0.5-0.1,0.7-0.3c0.4-0.4,0.4-1,0-1.4L27.1,21.4v-6.8l12.1,11.7c0.2,0.2,0.4,0.3,0.7,0.3c0.3,0,0.5-0.1,0.7-0.3  c0.4-0.4,0.4-1,0-1.4L26.9,11.6c-0.4-0.4-1-0.4-1.4,0L11.7,24.8c-0.4,0.4-0.4,1,0,1.4c0.4,0.4,1,0.4,1.4,0l12-11.4v6.7L11.6,34.3  c-0.4,0.4-0.4,1,0,1.4c0.4,0.4,1,0.4,1.4,0l12.1-11.5v6.7L11.6,43.8c-0.4,0.4-0.4,1,0,1.4c0.4,0.4,1,0.4,1.4,0l12.1-11.5v6.7  L11.5,53.3c-0.4,0.4-0.4,1,0,1.4c0.4,0.4,1,0.4,1.4,0l12.2-11.6v44.2H12.2c-0.6,0-1,0.4-1,1s0.4,1,1,1h74.1  C86.8,89.3,87.2,88.9,87.2,88.3z M36.8,59.2h26v20.2h-26V59.2z"></path><path d="M49.6,65c-2.3,0-4.2,1.9-4.2,4.2c0,2.3,1.9,4.2,4.2,4.2c2.3,0,4.2-1.9,4.2-4.2C53.8,66.9,51.9,65,49.6,65z M49.6,71.4  c-1.2,0-2.2-1-2.2-2.2s1-2.2,2.2-2.2s2.2,1,2.2,2.2S50.8,71.4,49.6,71.4z"></path><path d="M57.6,68.2H56c-0.6,0-1,0.4-1,1s0.4,1,1,1h1.6c0.6,0,1-0.4,1-1S58.2,68.2,57.6,68.2z"></path><path d="M57.2,72.1l-1.4-0.8c-0.5-0.3-1.1-0.1-1.4,0.4c-0.3,0.5-0.1,1.1,0.4,1.4l1.4,0.8c0.1,0.1,0.3,0.1,0.5,0.1  c0.4,0,0.7-0.2,0.9-0.5C57.8,72.9,57.6,72.3,57.2,72.1z"></path><path d="M54,73.9c-0.3-0.5-0.9-0.6-1.4-0.3c-0.5,0.3-0.6,0.9-0.3,1.4l0.9,1.3c0.2,0.3,0.5,0.4,0.8,0.4c0.2,0,0.4-0.1,0.6-0.2  c0.5-0.3,0.6-0.9,0.3-1.4L54,73.9z"></path><path d="M50.2,74.6c-0.5,0.1-0.9,0.6-0.9,1.1l0.2,1.6c0.1,0.5,0.5,0.9,1,0.9c0,0,0.1,0,0.1,0c0.5-0.1,0.9-0.6,0.9-1.1l-0.2-1.6  C51.2,74.9,50.8,74.5,50.2,74.6z"></path><path d="M47.6,74.2c-0.5-0.2-1.1,0.1-1.3,0.6l-0.6,1.5c-0.2,0.5,0.1,1.1,0.6,1.3c0.1,0,0.2,0.1,0.4,0.1c0.4,0,0.8-0.2,0.9-0.6  l0.6-1.5C48.4,75,48.1,74.4,47.6,74.2z"></path><path d="M45.5,72.7c-0.4-0.4-1-0.5-1.4-0.1l-1.2,1.1c-0.4,0.4-0.5,1-0.1,1.4c0.2,0.2,0.5,0.3,0.8,0.3c0.2,0,0.5-0.1,0.7-0.2l1.2-1.1  C45.8,73.8,45.8,73.2,45.5,72.7z"></path><path d="M44.3,70.4c-0.1-0.5-0.7-0.9-1.2-0.7L41.5,70c-0.5,0.1-0.9,0.7-0.7,1.2c0.1,0.5,0.5,0.8,1,0.8c0.1,0,0.2,0,0.2,0l1.6-0.4  C44.1,71.5,44.4,71,44.3,70.4z"></path><path d="M41.6,68.1l1.6,0.4c0.1,0,0.2,0,0.3,0c0.4,0,0.8-0.3,1-0.7c0.1-0.5-0.2-1.1-0.7-1.2l-1.6-0.4c-0.5-0.1-1.1,0.2-1.2,0.7  C40.7,67.4,41,68,41.6,68.1z"></path><path d="M44.2,65.6c0.2,0.2,0.4,0.3,0.7,0.3c0.3,0,0.5-0.1,0.7-0.3c0.4-0.4,0.3-1-0.1-1.4L44.4,63c-0.4-0.4-1-0.3-1.4,0.1  c-0.4,0.4-0.3,1,0.1,1.4L44.2,65.6z"></path><path d="M46.5,63.5c0.1,0.4,0.5,0.7,0.9,0.7c0.1,0,0.2,0,0.3-0.1c0.5-0.2,0.8-0.8,0.6-1.3l-0.5-1.5c-0.2-0.5-0.8-0.8-1.3-0.6  C46,60.9,45.8,61.4,46,62L46.5,63.5z"></path><path d="M50.4,63.8c0,0,0.1,0,0.1,0c0.5,0,0.9-0.4,1-0.9l0.2-1.6c0.1-0.5-0.3-1.1-0.8-1.1c-0.5-0.1-1.1,0.3-1.1,0.8l-0.2,1.6  C49.4,63.2,49.8,63.7,50.4,63.8z"></path><path d="M53.4,65c0.3,0,0.6-0.1,0.8-0.4l0.9-1.3c0.3-0.4,0.2-1.1-0.2-1.4c-0.4-0.3-1.1-0.2-1.4,0.2l-0.9,1.3  c-0.3,0.4-0.2,1.1,0.2,1.4C53,64.9,53.2,65,53.4,65z"></path><path d="M54.5,66.8c0.2,0.4,0.5,0.6,0.9,0.6c0.1,0,0.3,0,0.4-0.1l1.4-0.7c0.5-0.2,0.7-0.8,0.5-1.3c-0.2-0.5-0.8-0.7-1.3-0.5  l-1.4,0.7C54.4,65.7,54.2,66.3,54.5,66.8z"></path></svg>